<?xml version="1.0" encoding="utf-8"?>
<!-- Generator: Adobe Illustrator 18.1.1, SVG Export Plug-In . SVG Version: 6.00 Build 0)  -->
<svg version="1.1" id="Magnifying_glass" xmlns="http://www.w3.org/2000/svg" xmlns:xlink="http://www.w3.org/1999/xlink" x="0px"
	 y="0px" viewBox="0 90 612 612" enable-background="new 0 90 612 612" xml:space="preserve">
<circle fill="#5D0E4E" stroke="#5D0E4E" stroke-miterlimit="10" cx="306" cy="396" r="306"/>
<path fill="#FFFFFF" d="M241.4,429.8v-95.3H183c-16.9,0-30.8,13.8-30.8,30.8v92.3c0,16.9,13.8,30.8,30.8,30.8h15.4v46.1l46.1-46.1
	h76.9c16.9,0,30.8-13.8,30.8-30.8v-28c-1,0.2-2,0.3-3.1,0.3L241.4,429.8L241.4,429.8z M429,257.6H290.6c-16.9,0-30.8,13.8-30.8,30.8
	v123h107.6l46.1,46.1v-46.1H429c16.9,0,30.8-13.8,30.8-30.8v-92.3C459.8,271.4,445.9,257.6,429,257.6z"/>
</svg>
